<svg width="175" height="37" viewBox="0 0 175 37" fill="none" xmlns="http://www.w3.org/2000/svg">
<rect x="0.0853846" y="0.0853846" width="38.3292" height="36.8292" rx="2.80462" fill="#007AFF" stroke="#00254D" stroke-width="0.170769"/>
<path d="M21.9268 11.3134L19.0665 16.3588H28.0517C27.4538 15.1266 26.597 14.0379 25.5398 13.1672C24.4826 12.2964 23.2499 11.6641 21.926 11.3134M28.6718 18.0153H22.7792L27.2667 25.9728C28.3974 24.3724 29.0031 22.4603 29 20.5008C29 19.6415 28.8851 18.8081 28.6718 18.0153ZM26.1206 27.3132L23.2275 22.1875L18.835 29.9775C19.0538 29.993 19.2755 30.0008 19.5 30.0008C22.0745 30.0008 24.4106 28.9757 26.1206 27.3132ZM17.0939 29.6933L19.9448 24.6411H10.9474C11.5467 25.8768 12.4064 26.9682 13.4674 27.8403C14.5284 28.7124 15.7655 29.3446 17.0939 29.6933ZM10.3282 22.9846H16.2199L11.7411 15.0184C10.6056 16.6208 9.99703 18.5369 10 20.5008C10 21.3601 10.114 22.1927 10.3282 22.9846ZM12.888 13.6789C13.848 12.7463 14.9947 12.0277 16.2526 11.5704C17.5104 11.1131 18.8509 10.9275 20.1857 11.0259L15.7743 18.8133L12.888 13.6789Z" fill="white"/>
<circle cx="31.7495" cy="6.75" r="2.25" fill="white"/>
<mask id="path-4-outside-1_8_28" maskUnits="userSpaceOnUse" x="45.873" y="1.56909" width="127" height="35" fill="black">
<rect fill="white" x="45.873" y="1.56909" width="127" height="35"/>
<path d="M52.2602 2.48153V35.5691H46.4049V2.48153H52.2602ZM61.337 11.5899V14.9823C63.2888 12.287 65.7983 10.9393 68.8654 10.9393C70.4454 10.9393 71.7931 11.3111 72.9549 12.0081C74.1166 12.7517 74.9996 13.7276 75.5573 15.0288C77.4626 12.3334 80.065 10.9393 83.318 10.9393C85.5486 10.9393 87.4539 11.6364 88.941 12.984C90.4281 14.3317 91.1716 16.1906 91.1716 18.5606V35.5691H85.8739V20.8377C85.8739 19.1647 85.5486 17.8171 84.9909 16.8412C84.3868 15.9117 83.2715 15.4006 81.5985 15.4006C79.8791 15.4006 78.5779 15.9582 77.6949 17.027C76.7655 18.0959 76.3473 19.583 76.3473 21.4883V35.5691H71.0495V20.5589C71.0495 18.8859 70.7707 17.5847 70.2595 16.7017C69.7483 15.8653 68.6795 15.4006 67.0995 15.4006C65.2871 15.4006 63.9394 16.0047 63.01 17.1665C62.0806 18.3282 61.6159 19.8618 61.6159 21.7671V35.5691H56.3181V11.5899H61.337ZM124.125 17.8635V35.5691H120.407L119.525 31.619C116.876 34.7791 113.437 36.3591 109.208 36.3591C104.561 36.3591 100.75 34.7791 97.8689 31.619C94.9877 28.459 93.5471 24.3695 93.5471 19.2577C93.5471 14.2852 94.9877 10.1493 97.9154 6.80336C100.797 3.45743 104.747 1.78446 109.719 1.78446C113.297 1.78446 116.411 2.80683 119.106 4.80509C121.802 6.84983 123.335 9.59164 123.707 13.0305H118.084C117.712 11.0787 116.783 9.4987 115.296 8.38339C113.809 7.26807 111.903 6.66395 109.673 6.66395C106.466 6.66395 103.957 7.77926 102.144 10.0099C100.285 12.2405 99.4025 15.3076 99.4025 19.1647C99.4025 23.0683 100.285 26.1354 102.144 28.366C104.003 30.5967 106.559 31.6655 109.859 31.6655C112.74 31.6655 114.924 30.7825 116.504 28.9702C118.084 27.2043 118.874 24.9736 118.874 22.3248H109.951V17.8635H124.125ZM148.792 28.0872C148.188 30.6896 146.886 32.7343 144.935 34.175C142.983 35.662 140.613 36.3591 137.917 36.3591C134.293 36.3591 131.411 35.1973 129.274 32.8738C127.136 30.5502 126.114 27.5296 126.114 23.8583C126.114 20.1406 127.182 17.027 129.367 14.5641C131.551 12.1476 134.339 10.8928 137.731 10.8928C141.217 10.8928 144.005 12.1011 146.05 14.5176C148.095 16.9341 149.117 20.1871 149.117 24.323V24.8807H131.411C131.458 27.2972 132.062 29.2025 133.224 30.5037C134.339 31.8049 135.966 32.4555 138.01 32.4555C139.451 32.4555 140.613 32.1302 141.542 31.4331C142.472 30.7361 143.169 29.6208 143.726 28.0872H148.792ZM143.819 21.3489C143.633 19.3506 143.029 17.7706 141.914 16.6088C140.799 15.447 139.404 14.8429 137.685 14.8429C135.919 14.8429 134.525 15.4006 133.456 16.5159C132.387 17.6312 131.737 19.2577 131.504 21.3489H143.819ZM155.886 11.5899V15.1217C157.791 12.3334 160.44 10.9393 163.833 10.9393C166.528 10.9393 168.573 11.6828 169.92 13.1699C171.268 14.657 171.965 16.7947 171.965 19.583V35.5691H166.667V21.6277C166.667 20.6983 166.621 19.9083 166.528 19.2577C166.435 18.6071 166.203 17.9565 165.924 17.3059C165.645 16.6553 165.18 16.1906 164.53 15.8653C163.879 15.54 163.043 15.3541 162.02 15.3541C158.117 15.3541 156.165 17.8171 156.165 22.6501V35.5691H150.867V11.5899H155.886Z"/>
</mask>
<path d="M52.2602 2.48153V35.5691H46.4049V2.48153H52.2602ZM61.337 11.5899V14.9823C63.2888 12.287 65.7983 10.9393 68.8654 10.9393C70.4454 10.9393 71.7931 11.3111 72.9549 12.0081C74.1166 12.7517 74.9996 13.7276 75.5573 15.0288C77.4626 12.3334 80.065 10.9393 83.318 10.9393C85.5486 10.9393 87.4539 11.6364 88.941 12.984C90.4281 14.3317 91.1716 16.1906 91.1716 18.5606V35.5691H85.8739V20.8377C85.8739 19.1647 85.5486 17.8171 84.9909 16.8412C84.3868 15.9117 83.2715 15.4006 81.5985 15.4006C79.8791 15.4006 78.5779 15.9582 77.6949 17.027C76.7655 18.0959 76.3473 19.583 76.3473 21.4883V35.5691H71.0495V20.5589C71.0495 18.8859 70.7707 17.5847 70.2595 16.7017C69.7483 15.8653 68.6795 15.4006 67.0995 15.4006C65.2871 15.4006 63.9394 16.0047 63.01 17.1665C62.0806 18.3282 61.6159 19.8618 61.6159 21.7671V35.5691H56.3181V11.5899H61.337ZM124.125 17.8635V35.5691H120.407L119.525 31.619C116.876 34.7791 113.437 36.3591 109.208 36.3591C104.561 36.3591 100.75 34.7791 97.8689 31.619C94.9877 28.459 93.5471 24.3695 93.5471 19.2577C93.5471 14.2852 94.9877 10.1493 97.9154 6.80336C100.797 3.45743 104.747 1.78446 109.719 1.78446C113.297 1.78446 116.411 2.80683 119.106 4.80509C121.802 6.84983 123.335 9.59164 123.707 13.0305H118.084C117.712 11.0787 116.783 9.4987 115.296 8.38339C113.809 7.26807 111.903 6.66395 109.673 6.66395C106.466 6.66395 103.957 7.77926 102.144 10.0099C100.285 12.2405 99.4025 15.3076 99.4025 19.1647C99.4025 23.0683 100.285 26.1354 102.144 28.366C104.003 30.5967 106.559 31.6655 109.859 31.6655C112.74 31.6655 114.924 30.7825 116.504 28.9702C118.084 27.2043 118.874 24.9736 118.874 22.3248H109.951V17.8635H124.125ZM148.792 28.0872C148.188 30.6896 146.886 32.7343 144.935 34.175C142.983 35.662 140.613 36.3591 137.917 36.3591C134.293 36.3591 131.411 35.1973 129.274 32.8738C127.136 30.5502 126.114 27.5296 126.114 23.8583C126.114 20.1406 127.182 17.027 129.367 14.5641C131.551 12.1476 134.339 10.8928 137.731 10.8928C141.217 10.8928 144.005 12.1011 146.05 14.5176C148.095 16.9341 149.117 20.1871 149.117 24.323V24.8807H131.411C131.458 27.2972 132.062 29.2025 133.224 30.5037C134.339 31.8049 135.966 32.4555 138.01 32.4555C139.451 32.4555 140.613 32.1302 141.542 31.4331C142.472 30.7361 143.169 29.6208 143.726 28.0872H148.792ZM143.819 21.3489C143.633 19.3506 143.029 17.7706 141.914 16.6088C140.799 15.447 139.404 14.8429 137.685 14.8429C135.919 14.8429 134.525 15.4006 133.456 16.5159C132.387 17.6312 131.737 19.2577 131.504 21.3489H143.819ZM155.886 11.5899V15.1217C157.791 12.3334 160.44 10.9393 163.833 10.9393C166.528 10.9393 168.573 11.6828 169.92 13.1699C171.268 14.657 171.965 16.7947 171.965 19.583V35.5691H166.667V21.6277C166.667 20.6983 166.621 19.9083 166.528 19.2577C166.435 18.6071 166.203 17.9565 165.924 17.3059C165.645 16.6553 165.18 16.1906 164.53 15.8653C163.879 15.54 163.043 15.3541 162.02 15.3541C158.117 15.3541 156.165 17.8171 156.165 22.6501V35.5691H150.867V11.5899H155.886Z" fill="url(#paint0_linear_8_28)"/>
<path d="M52.2602 2.48153H52.431V2.31076H52.2602V2.48153ZM52.2602 35.5691V35.7399H52.431V35.5691H52.2602ZM46.4049 35.5691H46.2341V35.7399H46.4049V35.5691ZM46.4049 2.48153V2.31076H46.2341V2.48153H46.4049ZM52.2602 2.48153H52.0895V35.5691H52.2602H52.431V2.48153H52.2602ZM52.2602 35.5691V35.3983H46.4049V35.5691V35.7399H52.2602V35.5691ZM46.4049 35.5691H46.5756V2.48153H46.4049H46.2341V35.5691H46.4049ZM46.4049 2.48153V2.6523H52.2602V2.48153V2.31076H46.4049V2.48153ZM61.337 11.5899H61.5078V11.4191H61.337V11.5899ZM61.337 14.9823H61.1663V15.5093L61.4753 15.0825L61.337 14.9823ZM72.9549 12.0081L73.047 11.8643L73.0427 11.8617L72.9549 12.0081ZM75.5573 15.0288L75.4003 15.096L75.5205 15.3766L75.6967 15.1274L75.5573 15.0288ZM91.1716 35.5691V35.7399H91.3424V35.5691H91.1716ZM85.8739 35.5691H85.7031V35.7399H85.8739V35.5691ZM84.9909 16.8412L85.1394 16.7563L85.1341 16.7481L84.9909 16.8412ZM77.6949 17.027L77.8238 17.1391L77.8266 17.1358L77.6949 17.027ZM76.3473 35.5691V35.7399H76.518V35.5691H76.3473ZM71.0495 35.5691H70.8788V35.7399H71.0495V35.5691ZM70.2595 16.7017L70.4074 16.6162L70.4052 16.6127L70.2595 16.7017ZM63.01 17.1665L63.1433 17.2731L63.1433 17.2731L63.01 17.1665ZM61.6159 35.5691V35.7399H61.7866V35.5691H61.6159ZM56.3181 35.5691H56.1474V35.7399H56.3181V35.5691ZM56.3181 11.5899V11.4191H56.1474V11.5899H56.3181ZM61.337 11.5899H61.1663V14.9823H61.337H61.5078V11.5899H61.337ZM61.337 14.9823L61.4753 15.0825C63.3982 12.4271 65.8582 11.1101 68.8654 11.1101V10.9393V10.7685C65.7383 10.7685 63.1794 12.1469 61.1987 14.8822L61.337 14.9823ZM68.8654 10.9393V11.1101C70.4172 11.1101 71.734 11.4748 72.867 12.1546L72.9549 12.0081L73.0427 11.8617C71.8522 11.1474 70.4737 10.7685 68.8654 10.7685V10.9393ZM72.9549 12.0081L72.8628 12.152C73.9986 12.8789 74.8574 13.8293 75.4003 15.096L75.5573 15.0288L75.7142 14.9615C75.1418 13.6259 74.2346 12.6245 73.0469 11.8643L72.9549 12.0081ZM75.5573 15.0288L75.6967 15.1274C77.5714 12.4754 80.1227 11.1101 83.318 11.1101V10.9393V10.7685C80.0072 10.7685 77.3538 12.1915 75.4178 14.9302L75.5573 15.0288ZM83.318 10.9393V11.1101C85.5109 11.1101 87.374 11.7944 88.8263 13.1106L88.941 12.984L89.0557 12.8575C87.5338 11.4784 85.5863 10.7685 83.318 10.7685V10.9393ZM88.941 12.984L88.8263 13.1106C90.2712 14.42 91.0008 16.2292 91.0008 18.5606H91.1716H91.3424C91.3424 16.1519 90.585 14.2434 89.0557 12.8575L88.941 12.984ZM91.1716 18.5606H91.0008V35.5691H91.1716H91.3424V18.5606H91.1716ZM91.1716 35.5691V35.3983H85.8739V35.5691V35.7399H91.1716V35.5691ZM85.8739 35.5691H86.0446V20.8377H85.8739H85.7031V35.5691H85.8739ZM85.8739 20.8377H86.0446C86.0446 19.1444 85.7156 17.7652 85.1392 16.7564L84.9909 16.8412L84.8427 16.9259C85.3815 17.8689 85.7031 19.1851 85.7031 20.8377H85.8739ZM84.9909 16.8412L85.1341 16.7481C84.487 15.7526 83.3045 15.2298 81.5985 15.2298V15.4006V15.5713C83.2385 15.5713 84.2866 16.0709 84.8477 16.9342L84.9909 16.8412ZM81.5985 15.4006V15.2298C79.8394 15.2298 78.4852 15.8022 77.5633 16.9183L77.6949 17.027L77.8266 17.1358C78.6705 16.1142 79.9187 15.5713 81.5985 15.5713V15.4006ZM77.6949 17.027L77.5661 16.915C76.5996 18.0264 76.1765 19.5602 76.1765 21.4883H76.3473H76.518C76.518 19.6058 76.9314 18.1653 77.8238 17.1391L77.6949 17.027ZM76.3473 21.4883H76.1765V35.5691H76.3473H76.518V21.4883H76.3473ZM76.3473 35.5691V35.3983H71.0495V35.5691V35.7399H76.3473V35.5691ZM71.0495 35.5691H71.2203V20.5589H71.0495H70.8788V35.5691H71.0495ZM71.0495 20.5589H71.2203C71.2203 18.871 70.9397 17.5357 70.4073 16.6162L70.2595 16.7017L70.1117 16.7873C70.6017 17.6337 70.8788 18.9008 70.8788 20.5589H71.0495ZM70.2595 16.7017L70.4052 16.6127C69.849 15.7024 68.7058 15.2298 67.0995 15.2298V15.4006V15.5713C68.6532 15.5713 69.6477 16.0281 70.1138 16.7908L70.2595 16.7017ZM67.0995 15.4006V15.2298C65.2449 15.2298 63.8441 15.8505 62.8767 17.0598L63.01 17.1665L63.1433 17.2731C64.0348 16.1589 65.3293 15.5713 67.0995 15.5713V15.4006ZM63.01 17.1665L62.8767 17.0598C61.9169 18.2595 61.4451 19.8341 61.4451 21.7671H61.6159H61.7866C61.7866 19.8895 62.2442 18.397 63.1433 17.2731L63.01 17.1665ZM61.6159 21.7671H61.4451V35.5691H61.6159H61.7866V21.7671H61.6159ZM61.6159 35.5691V35.3983H56.3181V35.5691V35.7399H61.6159V35.5691ZM56.3181 35.5691H56.4889V11.5899H56.3181H56.1474V35.5691H56.3181ZM56.3181 11.5899V11.7607H61.337V11.5899V11.4191H56.3181V11.5899ZM124.125 17.8635H124.296V17.6928H124.125V17.8635ZM124.125 35.5691V35.7399H124.296V35.5691H124.125ZM120.407 35.5691L120.241 35.6063L120.271 35.7399H120.407V35.5691ZM119.525 31.619L119.691 31.5818L119.616 31.2444L119.394 31.5093L119.525 31.619ZM97.8689 31.619L97.7427 31.7341L97.7427 31.7341L97.8689 31.619ZM97.9154 6.80336L98.0439 6.91582L98.0448 6.91479L97.9154 6.80336ZM119.106 4.80509L119.21 4.66904L119.208 4.66791L119.106 4.80509ZM123.707 13.0305V13.2013H123.897L123.877 13.0122L123.707 13.0305ZM118.084 13.0305L117.916 13.0625L117.943 13.2013H118.084V13.0305ZM115.296 8.38339L115.398 8.24677L115.398 8.24677L115.296 8.38339ZM102.144 10.0099L102.275 10.1192L102.277 10.1176L102.144 10.0099ZM102.144 28.366L102.013 28.4754L102.013 28.4754L102.144 28.366ZM116.504 28.9702L116.377 28.8563L116.375 28.8579L116.504 28.9702ZM118.874 22.3248H119.045V22.154H118.874V22.3248ZM109.951 22.3248H109.781V22.4955H109.951V22.3248ZM109.951 17.8635V17.6928H109.781V17.8635H109.951ZM124.125 17.8635H123.954V35.5691H124.125H124.296V17.8635H124.125ZM124.125 35.5691V35.3983H120.407V35.5691V35.7399H124.125V35.5691ZM120.407 35.5691L120.574 35.5318L119.691 31.5818L119.525 31.619L119.358 31.6563L120.241 35.6063L120.407 35.5691ZM119.525 31.619L119.394 31.5093C116.778 34.6295 113.388 36.1883 109.208 36.1883V36.3591V36.5299C113.486 36.5299 116.973 34.9286 119.655 31.7287L119.525 31.619ZM109.208 36.3591V36.1883C104.604 36.1883 100.841 34.6248 97.9951 31.504L97.8689 31.619L97.7427 31.7341C100.66 34.9333 104.518 36.5299 109.208 36.5299V36.3591ZM97.8689 31.619L97.9951 31.504C95.1477 28.381 93.7179 24.3353 93.7179 19.2577H93.5471H93.3763C93.3763 24.4038 94.8277 28.5369 97.7427 31.7341L97.8689 31.619ZM93.5471 19.2577H93.7179C93.7179 14.3209 95.147 10.2266 98.0439 6.91581L97.9154 6.80336L97.7869 6.69091C94.8284 10.072 93.3763 14.2495 93.3763 19.2577H93.5471ZM97.9154 6.80336L98.0448 6.91479C100.889 3.61173 104.789 1.95523 109.719 1.95523V1.78446V1.61369C104.704 1.61369 100.704 3.30313 97.786 6.69193L97.9154 6.80336ZM109.719 1.78446V1.95523C113.262 1.95523 116.34 2.9667 119.005 4.94228L119.106 4.80509L119.208 4.66791C116.482 2.64696 113.333 1.61369 109.719 1.61369V1.78446ZM119.106 4.80509L119.003 4.94114C121.66 6.95677 123.17 9.65553 123.537 13.0489L123.707 13.0305L123.877 13.0122C123.5 9.52775 121.943 6.7429 119.21 4.66904L119.106 4.80509ZM123.707 13.0305V12.8597H118.084V13.0305V13.2013H123.707V13.0305ZM118.084 13.0305L118.252 12.9986C117.873 11.0098 116.923 9.3904 115.398 8.24677L115.296 8.38339L115.193 8.52C116.643 9.60699 117.551 11.1477 117.916 13.0625L118.084 13.0305ZM115.296 8.38339L115.398 8.24677C113.877 7.10617 111.935 6.49318 109.673 6.49318V6.66395V6.83472C111.872 6.83472 113.74 7.42997 115.193 8.52L115.296 8.38339ZM109.673 6.66395V6.49318C106.421 6.49318 103.861 7.62671 102.012 9.9022L102.144 10.0099L102.277 10.1176C104.053 7.93181 106.511 6.83472 109.673 6.83472V6.66395ZM102.144 10.0099L102.013 9.90056C100.12 12.172 99.2317 15.2831 99.2317 19.1647H99.4025H99.5732C99.5732 15.3321 100.451 12.3091 102.275 10.1192L102.144 10.0099ZM99.4025 19.1647H99.2317C99.2317 23.0925 100.12 26.2038 102.013 28.4754L102.144 28.366L102.275 28.2567C100.451 26.067 99.5732 23.0441 99.5732 19.1647H99.4025ZM102.144 28.366L102.013 28.4754C103.91 30.7516 106.518 31.8363 109.859 31.8363V31.6655V31.4947C106.6 31.4947 104.096 30.4417 102.275 28.2567L102.144 28.366ZM109.859 31.6655V31.8363C112.778 31.8363 115.014 30.9395 116.633 29.0824L116.504 28.9702L116.375 28.8579C114.834 30.6256 112.701 31.4947 109.859 31.4947V31.6655ZM116.504 28.9702L116.631 29.084C118.243 27.2828 119.045 25.0099 119.045 22.3248H118.874H118.703C118.703 24.9374 117.925 27.1257 116.377 28.8563L116.504 28.9702ZM118.874 22.3248V22.154H109.951V22.3248V22.4955H118.874V22.3248ZM109.951 22.3248H110.122V17.8635H109.951H109.781V22.3248H109.951ZM109.951 17.8635V18.0343H124.125V17.8635V17.6928H109.951V17.8635ZM148.792 28.0872L148.958 28.1258L149.007 27.9164H148.792V28.0872ZM144.935 34.175L144.833 34.0375L144.831 34.0391L144.935 34.175ZM129.274 32.8738L129.399 32.7581L129.399 32.7581L129.274 32.8738ZM129.367 14.5641L129.24 14.4496L129.239 14.4508L129.367 14.5641ZM149.117 24.8807V25.0515H149.288V24.8807H149.117ZM131.411 24.8807V24.7099H131.237L131.241 24.884L131.411 24.8807ZM133.224 30.5037L133.353 30.3926L133.351 30.39L133.224 30.5037ZM141.542 31.4331L141.645 31.5698L141.645 31.5698L141.542 31.4331ZM143.726 28.0872V27.9164H143.607L143.566 28.0289L143.726 28.0872ZM143.819 21.3489V21.5196H144.007L143.989 21.3331L143.819 21.3489ZM141.914 16.6088L141.791 16.7271L141.791 16.7271L141.914 16.6088ZM133.456 16.5159L133.333 16.3977L133.333 16.3977L133.456 16.5159ZM131.504 21.3489L131.335 21.33L131.314 21.5196H131.504V21.3489ZM148.792 28.0872L148.625 28.0486C148.029 30.6153 146.749 32.6234 144.833 34.0376L144.935 34.175L145.036 34.3123C147.024 32.8453 148.346 30.7639 148.958 28.1258L148.792 28.0872ZM144.935 34.175L144.831 34.0391C142.914 35.4997 140.582 36.1883 137.917 36.1883V36.3591V36.5299C140.643 36.5299 143.051 35.8244 145.038 34.3108L144.935 34.175ZM137.917 36.3591V36.1883C134.333 36.1883 131.5 35.0412 129.399 32.7581L129.274 32.8738L129.148 32.9894C131.323 35.3534 134.253 36.5299 137.917 36.5299V36.3591ZM129.274 32.8738L129.399 32.7581C127.297 30.4725 126.284 27.4963 126.284 23.8583H126.114H125.943C125.943 27.5628 126.975 30.6279 129.148 32.9894L129.274 32.8738ZM126.114 23.8583H126.284C126.284 20.1754 127.342 17.1043 129.494 14.6774L129.367 14.5641L129.239 14.4508C127.023 16.9498 125.943 20.1058 125.943 23.8583H126.114ZM129.367 14.5641L129.493 14.6786C131.645 12.2983 134.387 11.0636 137.731 11.0636V10.8928V10.7221C134.291 10.7221 131.457 11.9969 129.24 14.4496L129.367 14.5641ZM137.731 10.8928V11.0636C141.173 11.0636 143.911 12.2542 145.919 14.6279L146.05 14.5176L146.18 14.4073C144.099 11.948 141.261 10.7221 137.731 10.7221V10.8928ZM146.05 14.5176L145.919 14.6279C147.931 17.0053 148.946 20.2152 148.946 24.323H149.117H149.288C149.288 20.159 148.258 16.8629 146.18 14.4073L146.05 14.5176ZM149.117 24.323H148.946V24.8807H149.117H149.288V24.323H149.117ZM149.117 24.8807V24.7099H131.411V24.8807V25.0515H149.117V24.8807ZM131.411 24.8807L131.241 24.884C131.288 27.3246 131.898 29.2753 133.096 30.6175L133.224 30.5037L133.351 30.39C132.226 29.1297 131.628 27.2698 131.582 24.8774L131.411 24.8807ZM133.224 30.5037L133.094 30.6149C134.249 31.9621 135.928 32.6263 138.01 32.6263V32.4555V32.2847C136.003 32.2847 134.429 31.6477 133.353 30.3926L133.224 30.5037ZM138.01 32.4555V32.6263C139.477 32.6263 140.678 32.2947 141.645 31.5698L141.542 31.4331L141.44 31.2965C140.547 31.9657 139.425 32.2847 138.01 32.2847V32.4555ZM141.542 31.4331L141.645 31.5698C142.611 30.8446 143.324 29.6943 143.887 28.1456L143.726 28.0872L143.566 28.0289C143.014 29.5472 142.332 30.6276 141.44 31.2965L141.542 31.4331ZM143.726 28.0872V28.258H148.792V28.0872V27.9164H143.726V28.0872ZM143.819 21.3489L143.989 21.3331C143.801 19.3094 143.187 17.6884 142.037 16.4905L141.914 16.6088L141.791 16.7271C142.871 17.8528 143.466 19.3918 143.649 21.3647L143.819 21.3489ZM141.914 16.6088L142.037 16.4905C140.889 15.2945 139.45 14.6721 137.685 14.6721V14.8429V15.0137C139.359 15.0137 140.708 15.5995 141.791 16.7271L141.914 16.6088ZM137.685 14.8429V14.6721C135.879 14.6721 134.438 15.2443 133.333 16.3977L133.456 16.5159L133.579 16.634C134.612 15.5568 135.959 15.0137 137.685 15.0137V14.8429ZM133.456 16.5159L133.333 16.3977C132.23 17.5488 131.57 19.2155 131.335 21.33L131.504 21.3489L131.674 21.3677C131.904 19.2998 132.545 17.7136 133.579 16.634L133.456 16.5159ZM131.504 21.3489V21.5196H143.819V21.3489V21.1781H131.504V21.3489ZM155.886 11.5899H156.057V11.4191H155.886V11.5899ZM155.886 15.1217H155.715V15.6743L156.027 15.2181L155.886 15.1217ZM169.92 13.1699L170.047 13.0553L170.047 13.0553L169.92 13.1699ZM171.965 35.5691V35.7399H172.136V35.5691H171.965ZM166.667 35.5691H166.497V35.7399H166.667V35.5691ZM166.528 19.2577L166.697 19.2335L166.697 19.2335L166.528 19.2577ZM156.165 35.5691V35.7399H156.336V35.5691H156.165ZM150.867 35.5691H150.696V35.7399H150.867V35.5691ZM150.867 11.5899V11.4191H150.696V11.5899H150.867ZM155.886 11.5899H155.715V15.1217H155.886H156.057V11.5899H155.886ZM155.886 15.1217L156.027 15.2181C157.9 12.4766 160.496 11.1101 163.833 11.1101V10.9393V10.7685C160.384 10.7685 157.682 12.1903 155.745 15.0254L155.886 15.1217ZM163.833 10.9393V11.1101C166.498 11.1101 168.489 11.8446 169.794 13.2846L169.92 13.1699L170.047 13.0553C168.657 11.5211 166.558 10.7685 163.833 10.7685V10.9393ZM169.92 13.1699L169.794 13.2846C171.104 14.7306 171.794 16.8219 171.794 19.583H171.965H172.136C172.136 16.7675 171.432 14.5834 170.047 13.0553L169.92 13.1699ZM171.965 19.583H171.794V35.5691H171.965H172.136V19.583H171.965ZM171.965 35.5691V35.3983H166.667V35.5691V35.7399H171.965V35.5691ZM166.667 35.5691H166.838V21.6277H166.667H166.497V35.5691H166.667ZM166.667 21.6277H166.838C166.838 20.6932 166.792 19.8946 166.697 19.2335L166.528 19.2577L166.359 19.2818C166.45 19.9219 166.497 20.7033 166.497 21.6277H166.667ZM166.528 19.2577L166.697 19.2335C166.601 18.5607 166.362 17.8939 166.081 17.2386L165.924 17.3059L165.767 17.3731C166.044 18.019 166.269 18.6534 166.359 19.2818L166.528 19.2577ZM165.924 17.3059L166.081 17.2386C165.785 16.5472 165.289 16.054 164.606 15.7125L164.53 15.8653L164.453 16.018C165.072 16.3271 165.506 16.7634 165.767 17.3731L165.924 17.3059ZM164.53 15.8653L164.606 15.7125C163.927 15.3728 163.063 15.1833 162.02 15.1833V15.3541V15.5248C163.023 15.5248 163.832 15.7072 164.453 16.018L164.53 15.8653ZM162.02 15.3541V15.1833C160.03 15.1833 158.511 15.813 157.495 17.083C156.485 18.3459 155.994 20.215 155.994 22.6501H156.165H156.336C156.336 20.2522 156.821 18.4733 157.762 17.2964C158.698 16.1266 160.107 15.5248 162.02 15.5248V15.3541ZM156.165 22.6501H155.994V35.5691H156.165H156.336V22.6501H156.165ZM156.165 35.5691V35.3983H150.867V35.5691V35.7399H156.165V35.5691ZM150.867 35.5691H151.038V11.5899H150.867H150.696V35.5691H150.867ZM150.867 11.5899V11.7607H155.886V11.5899V11.4191H150.867V11.5899Z" fill="url(#paint1_linear_8_28)" mask="url(#path-4-outside-1_8_28)"/>
<defs>
<linearGradient id="paint0_linear_8_28" x1="42.873" y1="18.08" x2="316.104" y2="18.2152" gradientUnits="userSpaceOnUse">
<stop stop-color="#007AFF"/>
<stop offset="1"/>
</linearGradient>
<linearGradient id="paint1_linear_8_28" x1="42.873" y1="18.08" x2="174.935" y2="18.08" gradientUnits="userSpaceOnUse">
<stop stop-color="#00254D"/>
<stop offset="1" stop-color="#007AFF"/>
</linearGradient>
</defs>
</svg>
